<?xml version="1.0" encoding="utf-8"?>
<!-- Generator: Adobe Illustrator 24.0.0, SVG Export Plug-In . SVG Version: 6.00 Build 0)  -->
<svg version="1.1" xmlns="http://www.w3.org/2000/svg" xmlns:xlink="http://www.w3.org/1999/xlink" x="0px" y="0px"
	 viewBox="0 0 453.72 106.24" style="enable-background:new 0 0 453.72 106.24;" xml:space="preserve">
<style type="text/css">
	.st0{fill:url(#SVGID_1_);}
	.st1{opacity:0.54;fill:url(#SVGID_2_);}
	.st2{opacity:0.53;fill:url(#SVGID_3_);}
	.st3{fill:url(#SVGID_4_);}
	.st4{fill:url(#SVGID_5_);}
	.st5{opacity:0.53;fill:url(#SVGID_6_);}
	.st6{opacity:0.47;fill:url(#SVGID_7_);}
	.st7{fill:#606060;}
	.st8{fill:#FFFFFF;}
	.st9{fill:url(#SVGID_8_);}
	.st10{opacity:0.82;fill:url(#SVGID_9_);}
	.st11{opacity:0.53;fill:url(#SVGID_10_);}
	.st12{fill:url(#SVGID_11_);}
	.st13{fill:url(#SVGID_12_);}
	.st14{opacity:0.53;fill:url(#SVGID_13_);}
	.st15{opacity:0.47;fill:url(#SVGID_14_);}
	.st16{fill:#333333;}
	.st17{fill:url(#SVGID_15_);}
	.st18{opacity:0.54;fill:url(#SVGID_16_);}
	.st19{opacity:0.53;fill:url(#SVGID_17_);}
	.st20{fill:url(#SVGID_18_);}
	.st21{fill:url(#SVGID_19_);}
	.st22{opacity:0.53;fill:url(#SVGID_20_);}
	.st23{opacity:0.47;fill:url(#SVGID_21_);}
	.st24{fill:#002D41;}
	.st25{fill:#006477;}
	.st26{fill:#88E0BC;}
	.st27{fill:#00AA54;}
	.st28{fill:#FF2E34;}
</style>
<g id="Layer_2">
</g>
<g id="Layer_1">
	<g>
		<g>
			<g>
				<path class="st8" d="M106.13,49.9c-0.43-7.36-2.4-14.34-5.6-20.61c-0.58-1.16-1.21-2.29-1.88-3.39
					c-0.31-0.52-0.63-1.04-0.96-1.55c-0.62-0.94-1.26-1.86-1.93-2.76c-0.24-0.32-0.48-0.64-0.73-0.96c-0.48-0.62-0.98-1.23-1.5-1.84
					s-1.05-1.21-1.61-1.8c-0.28-0.3-0.55-0.59-0.83-0.87c-0.83-0.87-1.7-1.7-2.6-2.49c-0.59-0.54-1.2-1.06-1.82-1.56
					c-0.28-0.24-0.57-0.47-0.86-0.71c-0.34-0.26-0.68-0.53-1.03-0.78c-0.32-0.24-0.64-0.47-0.97-0.7c-0.4-0.3-0.8-0.58-1.21-0.84
					c-0.35-0.25-0.7-0.48-1.06-0.7c-0.98-0.64-1.98-1.23-3-1.78c-0.27-0.15-0.54-0.3-0.81-0.44c-0.02-0.02-0.04-0.03-0.06-0.04
					c-0.48-0.25-0.96-0.49-1.44-0.73c-0.58-0.28-1.17-0.56-1.76-0.82c-0.02-0.01-0.04-0.02-0.06-0.03
					c-0.53-0.23-1.07-0.46-1.61-0.68c-0.66-0.27-1.33-0.52-2-0.76c-0.38-0.14-0.76-0.27-1.15-0.4c-0.23-0.07-0.46-0.14-0.68-0.21
					c-0.34-0.11-0.68-0.21-1.02-0.31c-0.21-0.06-0.42-0.13-0.62-0.19c-0.29-0.08-0.58-0.15-0.88-0.23
					c-0.15-0.04-0.31-0.08-0.46-0.12c-0.08-0.02-0.17-0.05-0.25-0.07c-0.12-0.03-0.24-0.06-0.37-0.09
					c-0.51-0.12-1.01-0.23-1.52-0.34C63,0.93,62.16,0.77,61.31,0.64c-1.97-0.32-3.97-0.52-6-0.6c-0.36-0.02-0.72-0.02-1.08-0.03
					c-1.6-0.03-3.18,0.01-4.74,0.11c-1.21,0.08-2.41,0.2-3.6,0.37h-0.03c-0.03,0-0.06,0.01-0.09,0.01h-0.05
					c-0.09,0.01-0.18,0.02-0.28,0.04c-0.03,0.01-0.07,0.01-0.1,0.02c-0.02,0-0.04,0.01-0.05,0.01c-0.02,0.01-0.03,0.01-0.05,0.02
					c-1.67,0.39-2.77,2.03-2.47,3.74c0.09,0.52,0.3,0.99,0.6,1.39c0.06,0.08,0.15,0.15,0.21,0.22c0.06,0.07,0.13,0.14,0.21,0.22
					c0.12,0.11,0.23,0.21,0.36,0.3c0.12,0.09,0.26,0.17,0.43,0.25c0.07,0.03,0.12,0.08,0.19,0.11c0.16,0.04,0.32,0.09,0.48,0.15
					c7.41,2.46,13.23,9.08,14.86,21.51c1.43,10.89-5.2,16.42-14.2,19.92C35.32,38.09,29.55,26.76,21.24,25.34
					C10.32,23.5,4.99,31.09,2.54,36.81C0.9,41.94,0,47.42,0,53.11c0,11.44,3.63,22.03,9.78,30.7l-0.01,0
					c0.22,0.31,0.44,0.61,0.66,0.91c0.07,0.1,0.14,0.19,0.21,0.29c0.02,0.02,0.03,0.04,0.05,0.06c0.31,0.41,0.63,0.82,0.96,1.23
					c0.05,0.07,0.11,0.13,0.16,0.19c0.22,0.27,0.44,0.54,0.66,0.8c0.06,0.07,0.11,0.14,0.17,0.2c0.33,0.4,0.67,0.79,1.02,1.17
					c0.05,0.06,0.09,0.11,0.14,0.16c0,0,0,0,0,0c0.63,0.7,1.29,1.37,1.95,2.03c0.02,0.02,0.04,0.04,0.06,0.06
					c0.37,0.37,0.74,0.73,1.12,1.08c0.1,0.09,0.2,0.17,0.29,0.26c0.17,0.16,0.35,0.32,0.53,0.47c0.11,0.1,0.22,0.2,0.34,0.3
					c0.41,0.37,0.82,0.72,1.24,1.07c0.38,0.31,0.77,0.62,1.16,0.92c0.18,0.14,0.37,0.28,0.55,0.42c0.15,0.11,0.29,0.23,0.44,0.34
					c0.12,0.09,0.23,0.18,0.34,0.26c0.35,0.26,0.71,0.51,1.08,0.76c0.05,0.04,0.11,0.08,0.16,0.12c0.38,0.26,0.76,0.52,1.15,0.77
					c0.33,0.22,0.68,0.42,1.01,0.63c0.17,0.11,0.35,0.22,0.52,0.32c0.56,0.34,1.12,0.66,1.69,0.97c0.16,0.09,0.31,0.18,0.47,0.26
					c0.63,0.34,1.26,0.66,1.9,0.97c0.11,0.05,0.22,0.11,0.33,0.16c0.64,0.3,1.28,0.59,1.93,0.87c0.17,0.07,0.34,0.15,0.51,0.22
					c0.35,0.15,0.71,0.3,1.06,0.43c0.31,0.13,0.62,0.24,0.93,0.36c0.09,0.03,0.18,0.06,0.27,0.1c0.01,0,0.02,0.01,0.04,0.01
					c0.18,0.07,0.37,0.14,0.55,0.2c0.08,0.03,0.16,0.06,0.24,0.08c0.44,0.16,0.88,0.31,1.33,0.45c0.08,0.03,0.16,0.04,0.24,0.07
					c0.87,0.27,1.75,0.53,2.64,0.75c0.01,0,0.02,0.01,0.03,0.01c0.27,0.07,0.54,0.14,0.81,0.2c0.37,0.09,0.75,0.18,1.13,0.26
					c0.13,0.03,0.26,0.05,0.4,0.08c0.16,0.03,0.33,0.06,0.49,0.1c0.16,0.03,0.32,0.07,0.48,0.09c0.04,0.02,0.08,0.02,0.12,0.03
					c0.43,0.08,0.86,0.16,1.3,0.22c0.04,0.01,0.09,0.01,0.13,0.02c0.34,0.05,0.69,0.1,1.04,0.15c0.3,0.04,0.6,0.09,0.9,0.13
					c0.26,0.04,0.51,0.06,0.76,0.09c0.1,0.01,0.21,0.02,0.31,0.03c0.12,0.01,0.24,0.03,0.35,0.04c0.46,0.04,0.91,0.08,1.37,0.11
					c0.2,0.01,0.4,0.02,0.61,0.03c0.01,0,0.03,0,0.04,0c0.81,0.04,1.62,0.07,2.44,0.07c0.17,0,0.34,0.02,0.52,0.02
					c0.46,0,0.92-0.01,1.37-0.02c0.24-0.01,0.49-0.02,0.73-0.03c0.15-0.01,0.29-0.01,0.44-0.02c0.04,0,0.08,0,0.12,0
					c0.29-0.01,0.59-0.03,0.88-0.05c0.34-0.02,0.67-0.05,1.01-0.08c0.1-0.01,0.19-0.02,0.29-0.02c0.3-0.03,0.6-0.05,0.91-0.09
					c0.32-0.03,0.63-0.08,0.94-0.12c0.16-0.02,0.31-0.04,0.47-0.06c0.72-0.1,1.43-0.2,2.14-0.33c0,0,0,0,0.01,0
					c0.03-0.01,0.06-0.01,0.1-0.02c0.44-0.08,0.87-0.16,1.3-0.25c0.12-0.02,0.23-0.06,0.34-0.08c0.83-0.18,1.65-0.37,2.46-0.58
					c0.08-0.02,0.17-0.04,0.25-0.06c0.68-0.18,1.36-0.38,2.03-0.59c0.03-0.01,0.06-0.02,0.09-0.03c0.05-0.02,0.11-0.03,0.16-0.05
					c0.33-0.1,0.65-0.21,0.97-0.31c0.31-0.11,0.62-0.22,0.93-0.33c0.07-0.03,0.15-0.05,0.22-0.08c0.08-0.03,0.17-0.06,0.25-0.09
					c0.36-0.13,0.71-0.27,1.06-0.41c0.11-0.04,0.21-0.09,0.31-0.13c0.23-0.09,0.47-0.19,0.7-0.28c0.06-0.03,0.13-0.05,0.19-0.08
					c0.29-0.11,0.57-0.24,0.85-0.36c0.21-0.09,0.4-0.18,0.6-0.28c0.03-0.01,0.06-0.03,0.09-0.04c0,0,0.01,0,0.01,0
					c0.66-0.3,1.31-0.62,1.96-0.95c0.65-0.34,1.3-0.69,1.94-1.05c0.08-0.05,0.16-0.09,0.24-0.14c0.39-0.23,0.79-0.45,1.18-0.69
					c0.16-0.1,0.31-0.2,0.47-0.3c0.06-0.04,0.12-0.07,0.17-0.11c0.15-0.09,0.29-0.18,0.43-0.27c0.34-0.21,0.67-0.43,0.99-0.65
					c0.08-0.05,0.15-0.1,0.22-0.15c0.09-0.06,0.17-0.12,0.25-0.18c0.22-0.15,0.44-0.29,0.65-0.45c0.18-0.13,0.35-0.26,0.52-0.39
					c0.31-0.22,0.61-0.45,0.91-0.68c0.2-0.15,0.41-0.3,0.61-0.46c0.18-0.15,0.36-0.3,0.55-0.45c0.1-0.08,0.21-0.17,0.31-0.26
					c0.45-0.37,0.89-0.74,1.32-1.12c0.11-0.1,0.22-0.2,0.33-0.29c0.44-0.39,0.88-0.8,1.3-1.2c0.08-0.08,0.17-0.16,0.25-0.24
					c0.48-0.46,0.95-0.94,1.42-1.42c0.03-0.03,0.05-0.05,0.08-0.08c0.09-0.09,0.18-0.18,0.27-0.28c0.23-0.24,0.46-0.49,0.68-0.74
					c0.16-0.17,0.3-0.34,0.45-0.51c0.06-0.06,0.11-0.13,0.17-0.19c0.21-0.24,0.43-0.48,0.62-0.72c0.12-0.14,0.23-0.28,0.34-0.42
					c0.22-0.27,0.44-0.54,0.66-0.81c0.13-0.16,0.26-0.32,0.39-0.48c0.23-0.29,0.45-0.59,0.67-0.88c0.4-0.52,0.77-1.05,1.14-1.59
					c0.26-0.38,0.51-0.75,0.76-1.14c0.18-0.27,0.36-0.56,0.54-0.84c0.03-0.06,0.07-0.11,0.11-0.17c0.17-0.29,0.35-0.58,0.52-0.87
					c0.2-0.34,0.4-0.69,0.6-1.04c0.54-0.94,1.04-1.89,1.51-2.87c0.02-0.06,0.05-0.11,0.08-0.16
					C104.78,68.28,106.68,59.34,106.13,49.9z"/>
				<path class="st8" d="M36.43,9.72c1.73,0,3.13-1.4,3.13-3.13c0-1.73-1.4-3.13-3.13-3.13c-1.73,0-3.13,1.4-3.13,3.13
					C33.29,8.32,34.7,9.72,36.43,9.72z"/>
			</g>
			<g>
				<linearGradient id="SVGID_1_" gradientUnits="userSpaceOnUse" x1="72.763" y1="14.6057" x2="29.3064" y2="144.9756">
					<stop  offset="0" style="stop-color:#FAA363"/>
					<stop  offset="1" style="stop-color:#FF0000"/>
				</linearGradient>
				<path class="st0" d="M100.98,76.14c-0.03,0.05-0.06,0.1-0.08,0.16c-0.47,0.98-0.97,1.93-1.51,2.87c-0.2,0.35-0.4,0.7-0.6,1.04
					c-0.17,0.29-0.35,0.58-0.52,0.87c-0.04,0.06-0.08,0.11-0.11,0.17c-0.18,0.28-0.36,0.57-0.54,0.84c-0.25,0.39-0.5,0.76-0.76,1.14
					c-0.37,0.54-0.74,1.07-1.14,1.59c-0.22,0.29-0.44,0.59-0.67,0.88c-0.45,0.58-0.91,1.15-1.39,1.71c-0.22,0.27-0.46,0.54-0.7,0.81
					c-0.17,0.2-0.35,0.41-0.54,0.61c-0.22,0.25-0.45,0.5-0.68,0.74c-1.81,1.92-3.77,3.71-5.84,5.34c-0.67,0.52-1.35,1.03-2.05,1.53
					c-0.37,0.27-0.75,0.53-1.13,0.78c-0.32,0.22-0.65,0.44-0.99,0.65c-0.35,0.23-0.72,0.46-1.08,0.68c-1.1,0.67-2.22,1.29-3.36,1.88
					c-0.65,0.33-1.3,0.65-1.96,0.95c-0.01,0.01-0.02,0.01-0.03,0.01c-0.22,0.11-0.44,0.21-0.67,0.31c-0.28,0.12-0.56,0.25-0.85,0.36
					c-0.4,0.17-0.79,0.34-1.2,0.49c-0.35,0.14-0.7,0.28-1.06,0.41c-0.46,0.17-0.93,0.34-1.4,0.5c-0.4,0.13-0.81,0.26-1.22,0.39
					c-0.67,0.21-1.35,0.41-2.03,0.59c-1.01,0.27-2.03,0.51-3.06,0.72c-0.43,0.09-0.86,0.17-1.3,0.25c-1.2,0.22-2.42,0.39-3.65,0.52
					c-0.35,0.04-0.69,0.07-1.04,0.1c-0.39,0.04-0.78,0.07-1.17,0.09c-0.29,0.02-0.59,0.04-0.88,0.05c-0.43,0.03-0.86,0.04-1.29,0.05
					c-0.45,0.01-0.91,0.02-1.37,0.02c-1.01,0-2.01-0.03-3-0.09c-0.21-0.01-0.41-0.02-0.61-0.03c-0.46-0.03-0.91-0.07-1.37-0.11
					c-0.47-0.04-0.95-0.09-1.43-0.16c-0.69-0.08-1.38-0.17-2.07-0.29c-0.44-0.06-0.87-0.14-1.3-0.22c-0.04-0.01-0.08-0.01-0.12-0.03
					c-0.46-0.08-0.92-0.17-1.37-0.27c-0.38-0.08-0.76-0.17-1.13-0.26c-0.27-0.06-0.54-0.13-0.81-0.2c-0.98-0.25-1.95-0.53-2.91-0.83
					c-0.45-0.14-0.89-0.29-1.33-0.45c-0.08-0.02-0.16-0.05-0.24-0.08c-0.28-0.1-0.57-0.2-0.85-0.31c-0.31-0.12-0.62-0.23-0.93-0.36
					c-0.4-0.15-0.8-0.32-1.2-0.49c-2.88-1.21-5.63-2.68-8.22-4.36c-0.39-0.25-0.77-0.51-1.15-0.77c-0.05-0.04-0.11-0.08-0.16-0.12
					c-0.37-0.25-0.73-0.5-1.08-0.76c-0.45-0.33-0.9-0.67-1.34-1.02c-0.39-0.3-0.78-0.61-1.16-0.92c-0.42-0.35-0.83-0.7-1.24-1.07
					c-0.39-0.34-0.78-0.69-1.16-1.04c-0.38-0.35-0.75-0.71-1.12-1.08c-0.69-0.68-1.36-1.37-2.01-2.09c-0.05-0.05-0.09-0.1-0.14-0.16
					c-0.35-0.38-0.69-0.77-1.02-1.17c-0.34-0.39-0.67-0.79-0.99-1.2c-0.33-0.41-0.65-0.82-0.96-1.23c-0.05-0.06-0.09-0.11-0.13-0.17
					c-0.27-0.36-0.53-0.72-0.79-1.09l0.12-0.02c0,0-10.85-18.37,3.39-25.84c7.76-4.08,21.88-5.36,32.63-9.55
					c9-3.5,15.63-9.03,14.2-19.92C58.48,16.05,52.66,9.43,45.25,6.97c-0.16-0.06-0.32-0.11-0.48-0.15c-0.56-0.23-1.05-0.61-1.4-1.1
					c-0.3-0.4-0.51-0.87-0.6-1.39c-0.3-1.71,0.8-3.35,2.47-3.74c0.2-0.04,0.41-0.07,0.62-0.1h0.03c1.18-0.16,2.38-0.28,3.6-0.37
					c1.56-0.1,3.14-0.14,4.74-0.11c0.36,0.01,0.72,0.01,1.08,0.03c2.03,0.08,4.03,0.28,6,0.6c3.27,0.51,6.44,1.33,9.49,2.42
					c0.67,0.24,1.34,0.49,2,0.76c0.54,0.22,1.08,0.45,1.61,0.68c0.02,0.01,0.04,0.02,0.06,0.03c0.59,0.26,1.18,0.54,1.76,0.82
					c0.48,0.24,0.96,0.48,1.44,0.73c0.02,0.01,0.04,0.02,0.06,0.04c0.27,0.14,0.54,0.29,0.81,0.44c1.02,0.55,2.02,1.14,3,1.78
					c0.36,0.22,0.71,0.45,1.06,0.7c0.41,0.26,0.81,0.54,1.21,0.84c0.33,0.23,0.65,0.46,0.97,0.7c0.35,0.25,0.69,0.52,1.03,0.78
					c0.29,0.24,0.58,0.47,0.86,0.71c0.62,0.5,1.23,1.02,1.82,1.56c0.9,0.8,1.76,1.63,2.6,2.49c0.28,0.28,0.55,0.57,0.83,0.87
					c0.56,0.59,1.09,1.19,1.61,1.8s1.02,1.22,1.5,1.84c0.25,0.32,0.49,0.64,0.73,0.96c0.67,0.9,1.31,1.82,1.93,2.76
					c0.33,0.51,0.65,1.03,0.96,1.55c0.67,1.1,1.3,2.23,1.88,3.39c3.2,6.27,5.17,13.25,5.6,20.61
					C106.68,59.34,104.78,68.28,100.98,76.14z"/>
				<linearGradient id="SVGID_2_" gradientUnits="userSpaceOnUse" x1="0" y1="65.6486" x2="104.946" y2="65.6486">
					<stop  offset="0" style="stop-color:#FF50CD"/>
					<stop  offset="1" style="stop-color:#CE02FE"/>
				</linearGradient>
				<path class="st1" d="M104.95,64.6c-5.23,23.83-26.45,41.64-51.84,41.64C23.78,106.24,0,82.45,0,53.11
					c0-5.68,0.9-11.16,2.54-16.29c2.44-5.73,7.78-13.32,18.69-11.47c17.14,2.91,23.48,48,83.42,39.3
					C104.76,64.62,104.84,64.62,104.95,64.6z"/>
				<linearGradient id="SVGID_3_" gradientUnits="userSpaceOnUse" x1="17.1004" y1="39.6029" x2="29.8961" y2="78.8348">
					<stop  offset="0" style="stop-color:#ECAAE8"/>
					<stop  offset="1" style="stop-color:#EC11E8;stop-opacity:0"/>
				</linearGradient>
				<path class="st2" d="M39.47,46.45c-7.9-8.58-10.86-15.58-17.44-16.75c-9.25-1.63-13.77,5.08-15.84,10.13
					c-1.39,4.53-2.16,9.37-2.16,14.39c0,3.62,0.39,7.14,1.14,10.52c0,0-0.35-6.85,7.14-10.88S39.47,46.45,39.47,46.45z"/>
				<linearGradient id="SVGID_4_" gradientUnits="userSpaceOnUse" x1="53.2446" y1="-8.8318" x2="102.528" y2="59.0748">
					<stop  offset="0" style="stop-color:#FD9745"/>
					<stop  offset="0.861" style="stop-color:#FF0000"/>
				</linearGradient>
				<path class="st3" d="M102.87,34.63C93.3,12.27,62.15,8,45.26,6.97c-1.26-0.35-1.59-0.98-1.89-1.25c-0.3-0.4-0.51-0.87-0.6-1.39
					c-0.3-1.71,0.8-3.35,2.47-3.74c0.02-0.01,0.03-0.01,0.05-0.02c0.01,0,0.03-0.01,0.05-0.01c0.03-0.01,0.07-0.01,0.1-0.02
					c0.1-0.02,0.19-0.03,0.28-0.04h0.05c0.03,0,0.06-0.01,0.09-0.01h0.03c1.19-0.17,2.39-0.29,3.6-0.37
					c1.56-0.1,3.14-0.14,4.74-0.11c0.36,0.01,0.72,0.03,1.08,0.04c2.03,0.08,4.03,0.28,6,0.59c0.82,0.13,1.63,0.28,2.43,0.44
					c0.54,0.11,1.08,0.23,1.62,0.36c0.13,0.03,0.25,0.06,0.37,0.09c0.53,0.13,1.06,0.27,1.59,0.42c0.78,0.22,1.56,0.46,2.33,0.71
					c0.39,0.13,0.77,0.26,1.15,0.4c0.67,0.24,1.34,0.49,2,0.76c0.54,0.22,1.08,0.45,1.61,0.68c0.02,0.01,0.04,0.02,0.06,0.03
					c0.59,0.26,1.18,0.54,1.76,0.82c0.48,0.24,0.96,0.48,1.44,0.73c0.02,0.01,0.04,0.02,0.06,0.04c0.27,0.14,0.54,0.29,0.81,0.44
					c1.02,0.55,2.02,1.14,3,1.78c0.36,0.22,0.71,0.45,1.06,0.7c0.41,0.26,0.81,0.54,1.21,0.84c0.33,0.23,0.65,0.46,0.97,0.7
					c0.35,0.25,0.69,0.52,1.03,0.78c0.29,0.24,0.58,0.47,0.86,0.71c0.62,0.5,1.23,1.02,1.82,1.56c0.9,0.79,1.77,1.62,2.6,2.49
					c0.28,0.28,0.55,0.57,0.83,0.87c0.56,0.59,1.09,1.19,1.61,1.8s1.02,1.22,1.5,1.84c0.25,0.32,0.49,0.64,0.73,0.96
					c0.67,0.9,1.31,1.82,1.93,2.76c0.33,0.51,0.65,1.03,0.96,1.55c0.67,1.1,1.29,2.23,1.88,3.39
					C101.4,31.02,102.19,32.8,102.87,34.63z"/>
				<linearGradient id="SVGID_5_" gradientUnits="userSpaceOnUse" x1="42.6832" y1="14.3511" x2="20.7126" y2="-12.9136">
					<stop  offset="0" style="stop-color:#FD9745"/>
					<stop  offset="0.861" style="stop-color:#FD5945"/>
				</linearGradient>
				<circle class="st4" cx="36.43" cy="6.59" r="3.13"/>
				<linearGradient id="SVGID_6_" gradientUnits="userSpaceOnUse" x1="53.0493" y1="82.6396" x2="53.5925" y2="130.2611">
					<stop  offset="0" style="stop-color:#D0376A;stop-opacity:0"/>
					<stop  offset="1" style="stop-color:#CF3467"/>
				</linearGradient>
				<path class="st5" d="M93.64,83.49c-7.68,12.04-22.66,20.21-39.9,20.21c-18.35,0-34.15-9.26-41.29-22.59
					C35.42,101.15,61.49,106.64,93.64,83.49z"/>
				<linearGradient id="SVGID_7_" gradientUnits="userSpaceOnUse" x1="68.6945" y1="-2.0635" x2="78.5628" y2="29.1711">
					<stop  offset="0" style="stop-color:#FCBB8D"/>
					<stop  offset="1" style="stop-color:#FCBB8D;stop-opacity:0"/>
				</linearGradient>
				<path class="st6" d="M52.87,7.85c0,0,39.96,1.45,47.44,30.3c0,0-18.83-11.83-36.7-6.28C63.61,31.87,66.27,16.06,52.87,7.85z"/>
			</g>
		</g>
		<g>
			<path class="st16" d="M150.04,14.87v61.8h35.88v14.52h-50.91V14.87H150.04z"/>
			<path class="st16" d="M245.32,45.88v45.31h-14.52v-5.6c-4.36,4.56-9.4,6.84-15.14,6.84c-6.71,0-12.15-2-16.33-6.01
				c-4.18-4.01-6.27-9.96-6.27-17.83c0-4.98,1.02-9.35,3.06-13.12c2.04-3.77,4.75-6.69,8.14-8.76c3.39-2.07,7.02-3.11,10.89-3.11
				c4.01,0,7.19,0.61,9.54,1.81c2.35,1.21,4.42,2.92,6.22,5.13l0.93-4.67H245.32z M230.81,73.77v-11.1
				c-0.83-2.21-2.27-3.97-4.3-5.29c-2.04-1.31-4.44-1.97-7.21-1.97c-3.18,0-5.89,1.18-8.14,3.53c-2.25,2.35-3.37,5.32-3.37,8.92
				c0,2.35,0.55,4.51,1.66,6.48c1.1,1.97,2.57,3.51,4.41,4.61c1.83,1.11,3.82,1.66,5.96,1.66
				C224.86,80.61,228.53,78.33,230.81,73.77z"/>
			<path class="st16" d="M259.48,24.57c1.62-1.42,3.47-2.13,5.55-2.13c2,0,3.8,0.71,5.39,2.13c1.59,1.42,2.38,3.16,2.38,5.24
				c0,2.07-0.8,3.8-2.38,5.18c-1.59,1.38-3.39,2.07-5.39,2.07c-2.07,0-3.92-0.69-5.55-2.07c-1.63-1.38-2.44-3.11-2.44-5.18
				C257.04,27.73,257.85,25.98,259.48,24.57z M271.87,45.88v45.31h-14.52V45.88H271.87z"/>
			<path class="st16" d="M301.68,25.97v19.7h10.99v11.3h-10.99v34.22h-14.52V56.97h-7.05v-11.3h7.05v-19.7H301.68z"/>
			<path class="st16" d="M365.81,45.88v45.31h-13.17l-1.04-7.26c-1.59,2.9-3.82,5.2-6.69,6.9c-2.87,1.69-6.24,2.54-10.11,2.54
				c-4.15,0-7.61-1.28-10.37-3.84c-2.77-2.56-4.18-5.81-4.25-9.75V45.88h14.52v28.52c0.21,4.42,2.25,6.64,6.12,6.64
				c3.18,0,5.72-1.55,7.62-4.67c1.9-3.11,2.85-7.12,2.85-12.03V45.88H365.81z"/>
			<path class="st16" d="M448.12,47.33c2.66,2.49,4.06,5.77,4.2,9.85v34.01H437.9v-28c-0.14-2.28-0.52-3.99-1.14-5.13
				s-1.83-1.78-3.63-1.92c-3.39,0-6.03,1.64-7.93,4.92c-1.9,3.28-2.85,7.14-2.85,11.56v18.56h-14.52v-28
				c-0.14-2.28-0.55-3.99-1.25-5.13c-0.69-1.14-1.97-1.78-3.84-1.92c-3.25,0-5.81,1.64-7.67,4.92c-1.87,3.28-2.8,7.07-2.8,11.35
				v18.77h-14.52V45.88h13.17l1.04,7.15c3.66-6.29,9.13-9.44,16.38-9.44c3.66,0,6.69,0.74,9.07,2.23c2.38,1.49,4.03,3.68,4.93,6.58
				c1.93-2.7,4.23-4.84,6.9-6.43c2.66-1.59,5.41-2.38,8.24-2.38C441.91,43.59,445.45,44.84,448.12,47.33z"/>
		</g>
	</g>
</g>
</svg>
